<svg width="20" height="18" viewBox="0 0 20 18" fill="none" xmlns="http://www.w3.org/2000/svg">
<path d="M9.99999 17.125C8.75957 17.125 7.59499 16.643 6.71749 15.7655L0.736135 10.1714C0.593948 10.0373 0.520822 9.85724 0.520822 9.67713C0.520822 9.51057 0.580406 9.34536 0.703634 9.21536C0.958217 8.94182 1.38749 8.92828 1.66103 9.18286L7.65863 14.7932C8.29645 15.4296 9.12249 15.7722 9.99999 15.7722C10.8775 15.7722 11.7035 15.4296 12.3251 14.8094L18.3389 9.18422C18.6125 8.92963 19.0404 8.94317 19.2963 9.21672C19.5509 9.49026 19.5374 9.91817 19.2638 10.1741L13.2662 15.7844C12.405 16.6457 11.2391 17.1278 9.99999 17.1278L9.99999 17.125ZM10.459 10.1741L19.2611 2.04911C19.5347 1.79588 19.5523 1.36797 19.2991 1.09172C19.0458 0.81682 18.6179 0.80057 18.3417 1.0538L9.99863 8.75495L1.65561 1.0538C1.38072 0.799215 0.951448 0.816819 0.698219 1.09171C0.577698 1.22171 0.518112 1.38692 0.518112 1.55078C0.518112 1.73359 0.59124 1.91505 0.736135 2.04776L9.53822 10.1728C9.79822 10.4124 10.1977 10.4124 10.4577 10.1728L10.459 10.1741Z" fill="url(#paint0_linear_11_503)"/>
<defs>
<linearGradient id="paint0_linear_11_503" x1="9.99831" y1="0.873657" x2="9.99831" y2="17.1278" gradientUnits="userSpaceOnUse">
<stop stop-color="#129E66"/>
<stop offset="1" stop-color="#129B8D"/>
</linearGradient>
</defs>
</svg>
